<?xml version="1.0" encoding="UTF-8" standalone="no"?>
<!DOCTYPE svg PUBLIC "-//W3C//DTD SVG 1.1//EN" "http://www.w3.org/Graphics/SVG/1.1/DTD/svg11.dtd">
<!-- Created with Vectornator (http://vectornator.io/) -->
<svg height="256.0px" stroke-miterlimit="10" style="fill-rule:nonzero;clip-rule:evenodd;stroke-linecap:round;stroke-linejoin:round;" version="1.1" viewBox="0 0 256 256" width="256.0px" xml:space="preserve" xmlns="http://www.w3.org/2000/svg" xmlns:xlink="http://www.w3.org/1999/xlink">
<defs>
<path d="M116.811 136.612L153.046 146.163C153.046 146.163 152.124 158.573 156.427 175.587C160.729 192.601 170.256 214.22 170.256 214.22C170.256 214.22 137.539 210.4 120.49 203.714C103.441 197.028 91.7628 185.614 91.7628 185.614C91.7628 185.614 93.6837 174.161 99.9457 161.911C106.208 149.66 116.811 136.612 116.811 136.612Z" id="Fill"/>
<path d="M115.952 194.442L107.393 188.178C107.393 188.178 108.23 184.351 110.925 180.047C113.619 175.742 118.171 170.96 118.171 170.96C118.171 170.96 116.767 177.204 116.212 183.075C115.657 188.945 115.952 194.442 115.952 194.442Z" id="Fill_2"/>
<path d="M124.696 196.499C124.696 196.499 124.724 191.393 125.919 186.66C127.114 181.926 129.904 175.508 129.904 175.508C129.904 175.508 129.728 181.969 130.244 188.824C130.759 195.679 133.02 199.563 133.02 199.563L124.696 196.499Z" id="Fill_3"/>
</defs>
<clipPath id="ArtboardFrame">
<rect height="256" width="256" x="0" y="0"/>
</clipPath>
<g clip-path="url(#ArtboardFrame)" id="레이어-1">
<path d="M0 128C0 57.3076 57.3076-5.68434e-14 128-5.68434e-14C198.692-5.68434e-14 256 57.3076 256 128C256 198.692 198.692 256 128 256C57.3076 256 0 198.692 0 128Z" fill="#ffffff" fill-rule="nonzero" opacity="1" stroke="none"/>
<g opacity="1">
<path d="M80 79.875C72.7393 79.8743 66.8438 79.9274 66.8438 80C60.0947 86.75 53.3428 93.5 46.5938 100.25C42.5943 104.25 38.5932 108.25 34.5938 112.25C32.3441 114.5 30.0934 116.75 27.8438 119C26.5939 120.25 25.3436 121.5 24.0938 122.75C23.3439 123.5 22.6249 124.25 21.875 125C21.3751 125.5 20.8749 126 20.375 126.5C20.125 126.75 19.875 127 19.625 127.25C19.4282 127.447 19.0498 127.671 19.0312 127.969C19.0114 128.287 19.4216 128.547 19.625 128.75C19.875 129 20.125 129.25 20.375 129.5C20.625 129.75 20.875 130 21.125 130.25C21.6251 130.75 22.1249 131.25 22.625 131.75C23.3751 132.5 24.1249 133.25 24.875 134C26.1252 135.25 27.3748 136.5 28.625 137.75C30.8753 140 33.1247 142.25 35.375 144.5C39.3755 148.5 43.3745 152.5 47.375 156.5C53.8759 163 60.3741 169.5 66.875 176C66.875 176.073 72.7465 176.126 80 176.125C87.2535 176.124 93.125 176.073 93.125 176C86.3759 169.25 79.6241 162.5 72.875 155.75C68.8755 151.75 64.8744 147.75 60.875 143.75C58.6253 141.5 56.3747 139.25 54.125 137C52.8752 135.75 51.6248 134.5 50.375 133.25C49.6251 132.5 48.8749 131.75 48.125 131C47.6251 130.5 47.1249 130 46.625 129.5C46.375 129.25 46.125 129 45.875 128.75C45.6789 128.554 45.3622 128.328 45.3438 128.031C45.324 127.714 45.6725 127.453 45.875 127.25C46.125 127 46.375 126.75 46.625 126.5C46.875 126.25 47.125 126 47.375 125.75C47.8751 125.25 48.3749 124.75 48.875 124.25C49.6251 123.5 50.4061 122.75 51.1562 122C52.4064 120.75 53.6561 119.5 54.9062 118.25C57.1566 116 59.4059 113.75 61.6562 111.5C65.6568 107.5 69.6557 103.5 73.6562 99.5C80.1571 93 86.6554 86.5 93.1562 80C93.1563 79.9274 87.2607 79.8757 80 79.875Z" fill="#000000" stroke="none"/>
</g>
<g opacity="1">
<path d="M176 79.875C168.739 79.8757 162.844 79.9274 162.844 80C169.595 86.75 176.343 93.5 183.094 100.25C187.094 104.25 191.093 108.25 195.094 112.25C197.344 114.5 199.593 116.75 201.844 119C203.094 120.25 204.344 121.5 205.594 122.75C206.344 123.5 207.125 124.25 207.875 125C208.375 125.5 208.875 126 209.375 126.5C209.625 126.75 209.875 127 210.125 127.25C210.328 127.453 210.676 127.714 210.656 128.031C210.638 128.328 210.321 128.554 210.125 128.75C209.875 129 209.625 129.25 209.375 129.5C209.125 129.75 208.875 130 208.625 130.25C208.125 130.75 207.625 131.25 207.125 131.75C206.375 132.5 205.625 133.25 204.875 134C203.625 135.25 202.375 136.5 201.125 137.75C198.875 140 196.625 142.25 194.375 144.5C190.376 148.5 186.374 152.5 182.375 156.5C175.876 163 169.374 169.5 162.875 176C162.875 176.073 168.747 176.124 176 176.125C183.253 176.126 189.125 176.072 189.125 176C195.876 169.25 202.624 162.5 209.375 155.75C213.376 151.75 217.374 147.75 221.375 143.75C223.625 141.5 225.875 139.25 228.125 137C229.375 135.75 230.625 134.5 231.875 133.25C232.625 132.5 233.375 131.75 234.125 131C234.625 130.5 235.125 130 235.625 129.5C235.875 129.25 236.125 129 236.375 128.75C236.578 128.547 236.989 128.287 236.969 127.969C236.95 127.671 236.572 127.447 236.375 127.25C236.125 127 235.875 126.75 235.625 126.5C235.375 126.25 235.125 126 234.875 125.75C234.375 125.25 233.875 124.75 233.375 124.25C232.625 123.5 231.906 122.75 231.156 122C229.906 120.75 228.656 119.5 227.406 118.25C225.157 116 222.906 113.75 220.656 111.5C216.657 107.5 212.656 103.5 208.656 99.5C202.157 93 195.655 86.5 189.156 80C189.156 79.9274 183.261 79.8743 176 79.875Z" fill="#000000" stroke="none"/>
</g>
<path d="M156.658 51.9653L135.304 138.347" fill="none" opacity="1" stroke="#000000" stroke-linecap="butt" stroke-linejoin="round" stroke-width="24"/>
<g opacity="1">
<mask height="77.6078" id="StrokeMask" maskUnits="userSpaceOnUse" width="78.4931" x="91.7628" y="136.612">
<rect fill="#000000" height="77.6078" stroke="none" width="78.4931" x="91.7628" y="136.612"/>
<use fill="#ffffff" fill-rule="evenodd" stroke="none" xlink:href="#Fill"/>
</mask>
<use fill="none" mask="url(#StrokeMask)" stroke="#000000" stroke-linecap="butt" stroke-linejoin="round" stroke-width="20" xlink:href="#Fill"/>
</g>
<g opacity="1">
<mask height="23.4823" id="StrokeMask_2" maskUnits="userSpaceOnUse" width="10.7785" x="107.393" y="170.96">
<rect fill="#000000" height="23.4823" stroke="none" width="10.7785" x="107.393" y="170.96"/>
<use fill="#ffffff" fill-rule="evenodd" stroke="none" xlink:href="#Fill_2"/>
</mask>
<use fill="none" mask="url(#StrokeMask_2)" stroke="#000000" stroke-linecap="butt" stroke-linejoin="round" stroke-width="20" xlink:href="#Fill_2"/>
</g>
<g opacity="1">
<mask height="24.0543" id="StrokeMask_3" maskUnits="userSpaceOnUse" width="8.32425" x="124.696" y="175.508">
<rect fill="#000000" height="24.0543" stroke="none" width="8.32425" x="124.696" y="175.508"/>
<use fill="#ffffff" fill-rule="evenodd" stroke="none" xlink:href="#Fill_3"/>
</mask>
<use fill="none" mask="url(#StrokeMask_3)" stroke="#000000" stroke-linecap="butt" stroke-linejoin="round" stroke-width="20" xlink:href="#Fill_3"/>
</g>
<path d="M120.143 123.61L156.658 133.093" fill="none" opacity="1" stroke="#000000" stroke-linecap="butt" stroke-linejoin="round" stroke-width="24"/>
</g>
</svg>
