<?xml version="1.0" encoding="UTF-8" standalone="no"?>
<!DOCTYPE svg PUBLIC "-//W3C//DTD SVG 1.1//EN" "http://www.w3.org/Graphics/SVG/1.1/DTD/svg11.dtd">
<!-- Created with Vectornator (http://vectornator.io/) -->
<svg height="256.0px" stroke-miterlimit="10" style="fill-rule:nonzero;clip-rule:evenodd;stroke-linecap:round;stroke-linejoin:round;" version="1.1" viewBox="0 0 256 256" width="256.0px" xml:space="preserve" xmlns="http://www.w3.org/2000/svg" xmlns:xlink="http://www.w3.org/1999/xlink">
<defs>
<path d="M113.802 131.52L150.036 141.07C150.036 141.07 149.115 153.48 153.417 170.494C157.72 187.509 167.247 209.127 167.247 209.127C167.247 209.127 134.529 205.308 117.481 198.621C100.432 191.935 88.7535 180.521 88.7535 180.521C88.7535 180.521 90.6744 169.068 96.9364 156.818C103.198 144.567 113.802 131.52 113.802 131.52Z" id="Fill"/>
<path d="M111.752 189.449L104.617 185.889C104.617 185.889 105.409 183.586 107.788 180.959C110.167 178.332 114.133 175.38 114.133 175.38C114.133 175.38 112.809 179.138 112.214 182.655C111.619 186.173 111.752 189.449 111.752 189.449Z" id="Fill_2"/>
<path d="M120.354 191.593C120.354 191.593 121.096 188.323 122.817 184.754C124.538 181.185 127.239 177.317 127.239 177.317C127.239 177.317 126.877 182.123 127.24 187.202C127.604 192.282 129.908 195.107 129.908 195.107L120.354 191.593Z" id="Fill_3"/>
</defs>
<clipPath id="ArtboardFrame">
<rect height="256" width="256" x="0" y="0"/>
</clipPath>
<g clip-path="url(#ArtboardFrame)" id="레이어-1">
<path d="M0 128C0 57.3076 57.3076-5.68434e-14 128-5.68434e-14C198.692-5.68434e-14 256 57.3076 256 128C256 198.692 198.692 256 128 256C57.3076 256 0 198.692 0 128Z" fill="#ffffff" fill-rule="nonzero" opacity="1" stroke="none"/>
<g opacity="1">
<path d="M80 79.9062C74.4149 79.9057 69.875 79.9441 69.875 80C63.1257 86.75 56.3743 93.5 49.625 100.25C45.6254 104.25 41.6246 108.25 37.625 112.25C35.3752 114.5 33.156 116.75 30.9062 119C29.6564 120.25 28.4061 121.5 27.1562 122.75C26.4063 123.5 25.6562 124.25 24.9062 125C24.4063 125.5 23.9062 126 23.4062 126.5C23.1563 126.75 22.9062 127 22.6562 127.25C22.4595 127.447 22.1123 127.671 22.0938 127.969C22.0739 128.287 22.4529 128.547 22.6562 128.75C22.9063 129 23.1562 129.25 23.4062 129.5C23.6563 129.75 23.9062 130 24.1562 130.25C24.6563 130.75 25.1562 131.25 25.6562 131.75C26.4063 132.5 27.1562 133.25 27.9062 134C29.1564 135.25 30.4061 136.5 31.6562 137.75C33.9065 140 36.156 142.25 38.4062 144.5C42.4067 148.5 46.4058 152.5 50.4062 156.5C56.9069 163 63.4056 169.5 69.9062 176C69.9063 176.056 74.4204 176.094 80 176.094C85.5796 176.093 90.0938 176.056 90.0938 176C83.3445 169.25 76.5931 162.5 69.8438 155.75C65.8442 151.75 61.8433 147.75 57.8438 143.75C55.594 141.5 53.3435 139.25 51.0938 137C49.8439 135.75 48.5936 134.5 47.3438 133.25C46.5938 132.5 45.8437 131.75 45.0938 131C44.5938 130.5 44.0937 130 43.5938 129.5C43.3438 129.25 43.0937 129 42.8438 128.75C42.6476 128.554 42.2998 128.328 42.2812 128.031C42.2615 127.714 42.6411 127.453 42.8438 127.25C43.0938 127 43.3437 126.75 43.5938 126.5C43.8438 126.25 44.0937 126 44.3438 125.75C44.8438 125.25 45.3437 124.75 45.8438 124.25C46.5938 123.5 47.3437 122.75 48.0938 122C49.3439 120.75 50.5936 119.5 51.8438 118.25C54.094 116 56.3748 113.75 58.625 111.5C62.6254 107.5 66.6246 103.5 70.625 99.5C77.1257 93 83.6243 86.5 90.125 80C90.125 79.9441 85.5851 79.9068 80 79.9062Z" fill="#000000" stroke="none"/>
</g>
<g opacity="1">
<path d="M176 79.9062C170.415 79.9068 165.875 79.9441 165.875 80C172.626 86.75 179.374 93.5 186.125 100.25C190.125 104.25 194.125 108.25 198.125 112.25C200.375 114.5 202.656 116.75 204.906 119C206.156 120.25 207.406 121.5 208.656 122.75C209.406 123.5 210.156 124.25 210.906 125C211.406 125.5 211.906 126 212.406 126.5C212.656 126.75 212.906 127 213.156 127.25C213.359 127.453 213.739 127.714 213.719 128.031C213.7 128.328 213.352 128.554 213.156 128.75C212.906 129 212.656 129.25 212.406 129.5C212.156 129.75 211.906 130 211.656 130.25C211.156 130.75 210.656 131.25 210.156 131.75C209.406 132.5 208.656 133.25 207.906 134C206.656 135.25 205.406 136.5 204.156 137.75C201.906 140 199.656 142.25 197.406 144.5C193.407 148.5 189.406 152.5 185.406 156.5C178.907 163 172.406 169.5 165.906 176C165.906 176.056 170.42 176.093 176 176.094C181.58 176.094 186.094 176.056 186.094 176C192.844 169.25 199.593 162.5 206.344 155.75C210.344 151.75 214.343 147.75 218.344 143.75C220.594 141.5 222.844 139.25 225.094 137C226.344 135.75 227.594 134.5 228.844 133.25C229.594 132.5 230.344 131.75 231.094 131C231.594 130.5 232.094 130 232.594 129.5C232.844 129.25 233.094 129 233.344 128.75C233.547 128.547 233.926 128.287 233.906 127.969C233.888 127.671 233.54 127.447 233.344 127.25C233.094 127 232.844 126.75 232.594 126.5C232.344 126.25 232.094 126 231.844 125.75C231.344 125.25 230.844 124.75 230.344 124.25C229.594 123.5 228.844 122.75 228.094 122C226.844 120.75 225.594 119.5 224.344 118.25C222.094 116 219.875 113.75 217.625 111.5C213.625 107.5 209.625 103.5 205.625 99.5C199.126 93 192.624 86.5 186.125 80C186.125 79.9441 181.585 79.9057 176 79.9062Z" fill="#000000" stroke="none"/>
</g>
<path d="M153.648 46.8726L133.834 129.041" fill="none" opacity="1" stroke="#000000" stroke-linecap="butt" stroke-linejoin="round" stroke-width="10"/>
<g opacity="1">
<mask height="77.6078" id="StrokeMask" maskUnits="userSpaceOnUse" width="78.4931" x="88.7535" y="131.52">
<rect fill="#000000" height="77.6078" stroke="none" width="78.4931" x="88.7535" y="131.52"/>
<use fill="#ffffff" fill-rule="evenodd" stroke="none" xlink:href="#Fill"/>
</mask>
<use fill="none" mask="url(#StrokeMask)" stroke="#000000" stroke-linecap="butt" stroke-linejoin="round" stroke-width="20" xlink:href="#Fill"/>
</g>
<path d="M122.815 126.019L144.248 131.64" fill="none" opacity="1" stroke="#000000" stroke-linecap="butt" stroke-linejoin="round" stroke-width="10"/>
<g opacity="1">
<mask height="14.0684" id="StrokeMask_2" maskUnits="userSpaceOnUse" width="9.51656" x="104.617" y="175.38">
<rect fill="#000000" height="14.0684" stroke="none" width="9.51656" x="104.617" y="175.38"/>
<use fill="#ffffff" fill-rule="evenodd" stroke="none" xlink:href="#Fill_2"/>
</mask>
<use fill="none" mask="url(#StrokeMask_2)" stroke="#000000" stroke-linecap="butt" stroke-linejoin="round" stroke-width="20" xlink:href="#Fill_2"/>
</g>
<g opacity="1">
<mask height="17.7899" id="StrokeMask_3" maskUnits="userSpaceOnUse" width="9.55406" x="120.354" y="177.317">
<rect fill="#000000" height="17.7899" stroke="none" width="9.55406" x="120.354" y="177.317"/>
<use fill="#ffffff" fill-rule="evenodd" stroke="none" xlink:href="#Fill_3"/>
</mask>
<use fill="none" mask="url(#StrokeMask_3)" stroke="#000000" stroke-linecap="butt" stroke-linejoin="round" stroke-width="20" xlink:href="#Fill_3"/>
</g>
</g>
</svg>
